<?xml version="1.0" standalone="no"?>
<!DOCTYPE svg PUBLIC "-//W3C//DTD SVG 20010904//EN"
 "http://www.w3.org/TR/2001/REC-SVG-20010904/DTD/svg10.dtd">
<svg version="1.0" xmlns="http://www.w3.org/2000/svg"
 width="221.000000pt" height="221.000000pt" viewBox="0 0 221.000000 221.000000"
 preserveAspectRatio="xMidYMid meet">
<metadata>
Created by potrace 1.11, written by Peter Selinger 2001-2013
</metadata>
<g transform="translate(0.000000,221.000000) scale(0.100000,-0.100000)"
fill="#000000" stroke="none">
<path d="M388 1450 c-35 -11 -86 -40 -121 -70 -42 -35 -128 -120 -122 -120 3
0 -5 -12 -18 -26 -94 -108 -141 -291 -99 -386 22 -50 70 -86 123 -92 32 -4
180 17 197 28 8 5 14 6 107 25 45 8 122 8 168 -2 10 -2 32 -15 48 -30 32 -28
49 -34 49 -18 0 12 56 31 92 31 16 0 54 -9 85 -20 32 -11 60 -20 62 -20 3 0
-25 22 -62 49 -81 59 -121 74 -207 76 -57 1 -84 -2 -162 -21 -10 -2 -27 -6
-38 -8 -11 -3 -23 -7 -28 -9 -4 -3 -23 -8 -42 -11 -19 -3 -57 -11 -85 -18 -27
-7 -61 -13 -75 -12 -14 0 -37 2 -52 2 -15 1 -42 17 -62 36 -32 29 -36 39 -36
82 0 101 52 223 146 345 84 109 197 190 226 161 8 -8 2 -20 -21 -41 -20 -19
-29 -35 -25 -45 9 -24 40 -19 59 10 24 37 27 65 10 91 -16 24 -62 30 -117 13z"/>
<path d="M1438 1446 c-40 -16 -89 -45 -100 -61 -4 -5 -8 -6 -8 -1 0 19 -157
-151 -201 -219 -74 -113 -94 -160 -108 -258 -14 -92 43 -161 123 -151 41 5
114 57 155 110 31 41 76 116 72 122 0 1 -1 3 0 5 1 1 3 20 5 41 4 50 -10 76
-42 76 -67 0 -127 -66 -163 -177 -11 -37 -4 -41 27 -15 11 9 32 25 46 36 14
10 24 22 21 26 -2 4 8 27 24 52 42 66 69 58 61 -17 -6 -66 -104 -188 -160
-200 -43 -9 -77 22 -74 68 3 51 14 100 26 114 6 7 8 13 4 13 -7 0 54 114 87
163 67 98 143 177 221 229 71 48 78 33 15 -32 -33 -32 -59 -66 -59 -74 0 -8
-5 -16 -10 -18 -17 -5 -24 -98 -8 -99 7 -1 23 -3 35 -4 12 -1 21 1 18 4 -2 4
8 12 23 19 44 20 118 160 109 205 -3 19 44 15 88 -6 22 -10 63 -35 91 -53 55
-38 73 -37 99 2 15 23 14 25 -2 31 -10 4 -20 9 -23 12 -3 4 -30 19 -60 36 -53
28 -91 33 -190 26 -14 -1 -43 1 -65 3 -22 3 -56 -1 -77 -8z m108 -76 c-12 -76
-83 -170 -128 -170 -20 0 -20 16 4 71 16 38 90 119 108 119 5 0 10 5 10 10 0
6 3 10 6 10 4 0 4 -18 0 -40z"/>
<path d="M1991 1442 c-63 -30 -251 -226 -251 -261 0 -6 -4 -11 -10 -11 -5 0
-10 -4 -10 -10 0 -5 -15 -33 -34 -62 -18 -29 -36 -63 -40 -75 -10 -30 -33 -53
-54 -53 -11 0 -13 3 -6 8 6 4 15 25 21 48 36 143 -112 102 -214 -61 -62 -98
-75 -183 -32 -205 40 -22 132 46 185 136 16 28 33 44 45 44 10 0 19 -4 19 -10
0 -5 -5 -10 -10 -10 -6 0 -10 -6 -8 -12 1 -7 -1 -22 -5 -33 -13 -37 -14 -82
-3 -97 23 -30 48 -30 87 2 38 30 55 38 44 20 -6 -10 29 -50 44 -50 4 0 25 11
45 25 39 27 47 29 45 18 -7 -41 24 -49 76 -19 23 14 50 38 60 53 10 15 25 34
33 42 22 23 45 61 39 67 -3 3 -18 -9 -34 -27 -15 -18 -40 -46 -55 -63 -14 -17
-29 -28 -33 -25 -8 8 9 46 68 149 84 146 81 136 42 135 -19 0 -37 -4 -41 -7
-3 -4 -14 -2 -24 4 -29 19 -72 -1 -125 -57 -63 -67 -72 -79 -87 -110 -6 -14
-15 -25 -20 -25 -4 0 -8 -7 -8 -15 0 -8 -4 -15 -10 -15 -5 0 -10 -4 -10 -10 0
-16 -33 -50 -49 -50 -11 0 -12 10 -7 46 3 26 10 52 16 59 5 6 7 14 4 17 -3 4
11 21 32 40 60 53 207 201 232 233 12 16 20 35 17 42 -4 11 1 14 20 13 14 -2
128 66 151 89 32 32 68 81 59 81 -4 0 -21 -12 -38 -26 -45 -38 -130 -74 -174
-74 -29 0 -45 -7 -66 -29 -27 -29 -27 -30 -8 -40 14 -8 22 -8 27 0 4 8 9 7 15
-2 8 -14 0 -24 -134 -162 -42 -44 -79 -78 -82 -75 -17 16 143 256 223 335 61
60 95 75 72 32 -6 -10 -7 -19 -3 -19 4 0 1 -5 -7 -10 -13 -8 -12 -10 3 -10 17
0 37 35 37 65 0 26 -33 35 -69 17z m-405 -392 c1 -29 -22 -80 -36 -80 -12 0
-30 34 -30 56 0 24 30 55 49 52 9 -2 16 -14 17 -28z m353 -62 c-68 -118 -98
-158 -119 -158 -16 0 -17 4 -10 30 16 55 107 190 128 190 5 0 13 8 16 17 5 12
10 13 17 6 8 -8 -1 -32 -32 -85z m-433 -13 c3 -8 14 -17 25 -20 17 -6 18 -9 4
-35 -17 -33 -75 -94 -92 -97 -29 -6 -25 46 7 106 33 62 46 73 56 46z"/>
<path d="M440 1276 c-6 -6 -10 -7 -10 -3 0 4 -9 -1 -21 -11 -106 -87 -173
-201 -163 -278 4 -32 24 -74 24 -51 0 4 8 3 19 -2 14 -8 26 -5 51 14 46 34
120 115 120 131 0 8 4 14 9 14 5 0 11 9 14 20 3 11 12 20 21 20 18 0 22 -16 6
-22 -6 -2 -12 -12 -15 -23 -20 -84 -20 -91 -8 -114 17 -34 52 -52 76 -39 10 5
21 7 24 5 4 -5 39 22 79 61 15 14 17 10 15 -25 -3 -25 33 -53 59 -46 10 3 26
14 36 24 20 22 34 24 34 5 0 -16 27 -30 50 -27 17 3 132 118 149 149 20 37 -5
32 -34 -6 -31 -41 -73 -77 -82 -69 -3 3 24 57 60 119 102 179 97 162 43 156
-25 -3 -46 -1 -46 4 0 5 -12 7 -27 4 -16 -2 -31 -5 -34 -5 -16 -2 -109 -103
-159 -172 -80 -110 -121 -140 -154 -116 -18 13 -18 18 -6 61 7 25 17 46 22 46
5 0 7 4 4 8 -7 12 81 121 110 134 35 16 42 2 11 -23 -43 -33 -33 -84 10 -54
27 19 43 64 32 92 -18 49 -85 37 -149 -26 -35 -35 -82 -71 -93 -71 -5 0 -6 8
-3 18 16 51 15 80 -2 95 -19 17 -56 19 -72 3z m60 -61 c0 -11 -7 -31 -16 -43
-12 -18 -19 -20 -35 -12 -32 18 -24 66 16 88 23 12 35 1 35 -33z m409 -42
c-23 -43 -46 -80 -51 -81 -4 -2 -6 -8 -2 -13 3 -5 0 -9 -5 -9 -6 0 -11 -4 -11
-10 0 -15 -42 -60 -57 -60 -7 0 -13 7 -13 16 0 22 41 104 52 104 4 0 8 6 8 13
0 6 12 26 26 42 14 17 34 40 45 53 10 12 26 22 35 22 12 0 6 -18 -27 -77z
m-450 -54 c1 -3 -12 -25 -29 -47 -49 -68 -100 -90 -100 -44 1 22 37 102 57
124 15 16 17 16 44 -5 15 -12 28 -25 28 -28z"/>
<path d="M1072 1250 c-13 -16 -19 -30 -15 -31 53 -7 64 -4 78 18 9 12 12 23 8
23 -5 0 -1 5 7 10 11 7 6 10 -21 10 -28 0 -40 -6 -57 -30z"/>
</g>
</svg>
